<svg xmlns="http://www.w3.org/2000/svg" width="254.568" height="38.764" class="logo-white"><g fill="#fdf6f0" data-name="Groupe 388"><path d="M63.555 26.907a7.555 7.555 0 1 1 6.657-11.135l-1.655.894a5.67 5.67 0 1 0 .124 5.129l1.7.809a7.591 7.591 0 0 1-6.82 4.3Z" data-name="Tracé 291"/><path d="m85.067 12.025-4.222 7.452-4.219-7.452h-2.165l5.444 9.609v5.134h1.882v-5.134l5.427-9.609Z" data-name="Tracé 292"/><path d="M247.756 26.907a7.555 7.555 0 1 1 6.647-11.135l-1.66.884a5.67 5.67 0 1 0 .124 5.129l1.7.809a7.6 7.6 0 0 1-6.812 4.312Z" data-name="Tracé 314"/><path d="M112.09 12.025h1.882v14.743h-1.882z" data-name="Rectangle 162"/><path d="M170.658 12.025h1.882v14.743h-1.882z" data-name="Rectangle 163"/><path d="M187.926 19.193v1.889h5.449a5.671 5.671 0 1 1-.425-4.382l1.657-.894a7.565 7.565 0 1 0-6.658 11.161 6.444 6.444 0 0 0 5.433-2.717v2.505h1.742v-7.562Z" data-name="Tracé 311"/><path d="M154.92 12.025h-1.882v14.743h11.171v-1.881h-9.289Z" data-name="Tracé 310"/><path d="M124.591 12.025h-1.882v14.743h11.168v-1.881h-9.287Z" data-name="Tracé 309"/><path d="M95.192 20.338h2.212l4.928 6.444h2.361l-4.982-6.529c2.42-.392 4.248-2.077 4.248-4.09 0-2.3-2.387-4.124-5.323-4.124H93.31v14.742h1.882Zm0-6.472h3.444c1.866 0 3.441 1.052 3.441 2.3s-1.575 2.294-3.441 2.294h-3.444Z" data-name="Tracé 308"/><path d="m204.28 14.834 9.006 11.934h2.121V12.025h-1.881v11.934l-9.009-11.934h-2.121v14.743h1.884Z" data-name="Tracé 312"/><path d="m222.914 26.765 1.4-3.134h8.248l1.387 3.134h2.062l-6.527-14.74h-2.062l-6.573 14.74Zm5.542-12.426 3.279 7.408h-6.57Z" data-name="Tracé 313"/><path d="M25.253 36.66a17.967 17.967 0 0 0 5.616-9.045l-1.081-.323c-1.836 6.068-5.653 10.061-9.8 10.327-.162 0-.334.013-.5.013a8.619 8.619 0 0 1-6.1-2.907V4.04a8.638 8.638 0 0 1 6.1-2.907h.2c4.093.079 7.858 3.7 9.853 9.488l1.068-.367a17.447 17.447 0 0 0-5.385-8.17 18.252 18.252 0 0 1 .04 34.574m-17.1-17.282c0-5.627 1.6-10.66 4.1-14.018v28.037c-2.507-3.351-4.1-8.391-4.1-14.018m-7.021 0a18.284 18.284 0 0 1 13-17.478 13.045 13.045 0 0 0-1.836 1.685h-.04v.048C9.101 7.153 7.034 12.898 7.034 19.38c0 7.691 2.907 14.351 7.107 17.481a18.284 18.284 0 0 1-13-17.479m37.634 0A19.4 19.4 0 0 0 20.052.016a8.216 8.216 0 0 0-.5-.016h-.162a19.382 19.382 0 0 0 0 38.764h.162a4.932 4.932 0 0 0 .514-.018 19.4 19.4 0 0 0 18.712-19.364"/></g></svg>