<svg xmlns="http://www.w3.org/2000/svg" width="254.568" height="38.764" class="logo-black" viewBox="0 0 192.066 29.247"><g data-name="Groupe 469"><path d="M47.951 20.4A5.7 5.7 0 1 1 52.97 12l-1.248.675a4.278 4.278 0 1 0 .093 3.87l1.282.611a5.727 5.727 0 0 1-5.146 3.246Z" data-name="Tracé 291"/><path d="m64.181 9.172-3.185 5.62-3.183-5.62h-1.634l4.107 7.25v3.87h1.42v-3.87l4.1-7.25Z" data-name="Tracé 292"/><path d="M186.926 20.4a5.7 5.7 0 1 1 5.015-8.4l-1.252.667a4.278 4.278 0 1 0 .093 3.87l1.283.611a5.733 5.733 0 0 1-5.139 3.252Z" data-name="Tracé 314"/><path d="M84.569 9.172h1.42v11.124h-1.42z" data-name="Rectangle 162"/><path d="M128.757 9.172h1.42v11.124h-1.42z" data-name="Rectangle 163"/><path d="M141.782 14.58v1.423h4.111a4.278 4.278 0 1 1-.321-3.306l1.25-.675a5.708 5.708 0 1 0-5.023 8.42 4.862 4.862 0 0 0 4.1-2.05v1.89h1.315V14.58Z" data-name="Tracé 311"/><path d="M116.884 9.172h-1.42v11.12h8.43v-1.42h-7.01Z" data-name="Tracé 310"/><path d="M94.001 9.172h-1.42v11.12h8.426v-1.42h-7.006Z" data-name="Tracé 309"/><path d="M71.82 15.444h1.668l3.718 4.862h1.781l-3.759-4.926c1.826-.3 3.2-1.567 3.2-3.086 0-1.739-1.8-3.111-4.016-3.111H70.4v11.123h1.42Zm0-4.883h2.6c1.408 0 2.6.793 2.6 1.733s-1.188 1.731-2.6 1.731h-2.6Z" data-name="Tracé 308"/><path d="m154.125 11.292 6.795 9h1.6V9.172h-1.42v9l-6.8-9h-1.6v11.12h1.422Z" data-name="Tracé 312"/><path d="m168.184 20.296 1.054-2.365h6.223l1.046 2.365h1.559l-4.925-11.124h-1.556l-4.959 11.124Zm4.182-9.376 2.474 5.589h-4.957Z" data-name="Tracé 313"/><path d="M19.053 27.66a13.556 13.556 0 0 0 4.237-6.824l-.815-.244c-1.386 4.578-4.265 7.591-7.4 7.792-.122 0-.252.01-.379.01a6.5 6.5 0 0 1-4.6-2.194V3.048a6.517 6.517 0 0 1 4.6-2.194h.149c3.088.06 5.929 2.788 7.434 7.158l.805-.277a13.163 13.163 0 0 0-4.063-6.164 13.77 13.77 0 0 1 .03 26.086m-12.9-13.039a17.965 17.965 0 0 1 3.1-10.576v21.154a17.954 17.954 0 0 1-3.1-10.576m-5.3 0a13.8 13.8 0 0 1 9.81-13.187 9.843 9.843 0 0 0-1.386 1.271h-.03v.037C6.857 5.398 5.297 9.732 5.297 14.623c0 5.8 2.194 10.827 5.362 13.189a13.8 13.8 0 0 1-9.81-13.188m28.394 0A14.638 14.638 0 0 0 15.12.012 6.664 6.664 0 0 0 14.742 0h-.122a14.624 14.624 0 0 0 0 29.247h.122a3.722 3.722 0 0 0 .388-.013 14.638 14.638 0 0 0 14.118-14.61"/></g></svg>